<?xml version="1.0" standalone="no"?>
<!DOCTYPE svg PUBLIC "-//W3C//DTD SVG 20010904//EN"
 "http://www.w3.org/TR/2001/REC-SVG-20010904/DTD/svg10.dtd">
<svg version="1.0" xmlns="http://www.w3.org/2000/svg"
 width="256.000000pt" height="256.000000pt" viewBox="0 0 256.000000 256.000000"
 preserveAspectRatio="xMidYMid meet">
<metadata>
Created by potrace 1.14, written by Peter Selinger 2001-2017
</metadata>
<g transform="translate(0.000000,256.000000) scale(0.100000,-0.100000)"
fill="#000000" stroke="none">
<path d="M1124 2025 c-147 -32 -267 -99 -379 -210 -113 -114 -177 -229 -210
-381 -18 -85 -13 -288 8 -354 79 -241 210 -396 420 -495 325 -155 739 -43 944
255 179 262 183 601 9 863 -76 114 -218 231 -343 282 -130 52 -316 69 -449 40z
m96 -105 c0 10 3 10 14 1 11 -9 15 -9 19 1 8 23 20 0 22 -41 1 -31 -1 -38 -13
-34 -11 5 -11 1 3 -20 16 -25 14 -32 -8 -28 -5 1 -7 -4 -4 -11 2 -7 9 -12 14
-11 15 3 8 -38 -8 -48 -12 -7 -7 -13 12 -11 8 1 4 -36 -4 -44 -12 -12 -8 -26
6 -17 6 4 4 -5 -5 -20 -20 -30 -23 -47 -7 -47 5 0 8 4 4 9 -3 5 -2 12 3 15 4
2 8 -6 8 -19 0 -13 -5 -21 -11 -18 -7 2 -12 -3 -12 -12 0 -9 6 -14 12 -11 6 2
12 -2 12 -10 0 -8 -5 -14 -10 -14 -5 0 -4 -7 3 -15 10 -12 9 -16 -4 -21 -9 -3
-13 -10 -10 -15 3 -5 9 -7 13 -5 3 3 7 -4 7 -14 0 -10 -3 -18 -6 -18 -18 2
-23 -4 -11 -11 8 -5 16 -17 17 -27 2 -12 0 -14 -9 -5 -16 16 -32 14 -18 -2 6
-8 7 -18 3 -22 -4 -5 0 -6 9 -3 11 4 15 -1 15 -17 0 -16 -4 -21 -15 -17 -9 3
-12 1 -7 -6 4 -7 2 -10 -7 -6 -8 3 -14 -2 -14 -11 0 -18 2 -18 26 -6 13 7 18
6 18 -5 0 -7 -3 -14 -6 -15 -34 -5 -79 -4 -75 2 2 4 -3 12 -12 17 -9 5 -15 13
-14 18 1 5 -4 10 -12 12 -9 2 -8 0 2 -7 8 -6 11 -11 6 -11 -5 0 -3 -7 4 -15
14 -17 14 -17 -18 -20 -17 -2 -20 1 -13 8 14 14 14 37 0 37 -5 0 -8 -4 -5 -9
8 -12 -21 -35 -47 -37 -12 -2 -16 0 -9 2 18 8 14 20 -8 21 -11 1 -19 -3 -17
-9 3 -17 -76 -17 -95 0 -10 8 -15 19 -12 23 3 5 0 9 -5 9 -14 0 -14 -23 -1
-36 6 -6 2 -10 -12 -11 -18 -2 -20 0 -8 7 10 7 11 10 2 10 -14 0 -12 21 3 33
6 5 4 7 -5 4 -8 -2 -14 -10 -12 -16 1 -6 -2 -11 -8 -11 -6 0 -9 -5 -8 -11 2
-8 -18 -12 -59 -13 -40 -1 -59 2 -53 8 19 19 10 29 -9 12 -11 -10 -39 -19 -62
-21 -29 -3 -38 -1 -28 6 7 5 11 9 7 9 -3 0 -14 3 -24 7 -11 4 -15 3 -10 -5 3
-6 3 -13 -2 -16 -4 -2 -7 22 -7 55 0 42 4 63 15 69 12 8 12 10 1 10 -9 0 -6 7
9 20 21 18 20 25 -2 21 -9 -1 1 29 15 47 5 6 6 12 3 12 -4 0 -1 10 6 23 7 12
11 25 10 29 -1 4 6 4 16 1 15 -6 15 -5 4 10 -12 13 -11 18 6 28 11 7 18 19 15
26 -6 16 19 17 34 2 9 -9 12 -7 10 10 -1 14 -6 20 -15 16 -8 -3 1 12 19 32 18
21 39 37 47 35 9 -2 11 1 7 10 -6 10 -5 11 6 1 18 -18 34 -16 19 2 -15 18 -3
38 17 31 11 -4 13 -2 9 9 -3 8 -2 14 2 14 21 -3 32 2 27 14 -4 6 1 3 9 -7 9
-11 16 -17 16 -14 0 4 3 14 7 24 5 13 3 15 -8 9 -8 -5 -11 -5 -6 1 5 5 12 9
15 9 4 1 16 6 28 12 12 7 26 8 34 3 8 -5 18 -6 22 -4 4 3 8 0 8 -7 0 -7 2 -10
5 -7 12 11 -7 37 -23 31 -14 -4 -14 -3 -3 5 10 7 21 7 32 1 25 -13 28 -11 24
9 -2 11 3 19 11 19 11 0 11 -3 1 -16 -10 -12 -9 -14 6 -8 10 4 16 3 13 -2 -3
-5 1 -12 10 -15 8 -3 13 -10 10 -15 -6 -10 24 -25 32 -16 3 3 1 5 -5 5 -10 0
-24 30 -27 55 -1 6 -5 14 -11 18 -6 5 -3 7 8 3 9 -3 17 -2 17 3 0 4 6 8 14 8
9 0 12 -6 8 -16 -5 -14 -3 -14 11 -2 9 7 14 18 10 25 -4 6 1 5 10 -3 13 -10
17 -10 17 -1z"/>
<path d="M1190 1896 c-6 -6 -10 -15 -10 -20 0 -6 5 -4 10 4 6 9 10 10 10 3 0
-22 -19 -24 -30 -2 -8 14 -15 18 -22 11 -13 -13 0 -35 14 -26 7 5 9 2 5 -8 -3
-9 -3 -19 1 -22 3 -4 7 -13 8 -21 2 -11 -2 -12 -16 -5 -9 5 -20 6 -24 3 -5 -6
-10 12 -7 30 1 8 -2 9 -41 11 -15 1 -24 -2 -22 -6 12 -20 -9 -27 -37 -13 -18
10 -29 11 -29 5 0 -6 -4 -9 -10 -5 -5 3 -16 -8 -24 -24 -11 -21 -21 -28 -34
-24 -12 3 -22 -2 -25 -11 -4 -10 -13 -13 -23 -9 -12 4 -15 2 -12 -8 3 -8 11
-13 18 -11 7 1 18 -3 26 -9 9 -8 14 -8 14 -1 0 6 -5 14 -10 17 -6 4 -8 11 -4
16 9 16 34 -10 27 -29 -3 -9 -2 -14 2 -9 5 4 9 17 10 29 2 25 39 33 56 11 15
-17 -6 -44 -27 -36 -9 3 -12 0 -9 -9 9 -22 32 -18 46 9 21 39 -18 92 -43 58
-12 -15 -10 7 2 25 8 12 10 12 10 1 0 -11 3 -11 15 -1 8 6 20 8 26 4 25 -15
60 -13 57 3 -4 21 18 28 26 8 3 -9 2 -13 -4 -10 -6 3 -10 2 -10 -4 0 -6 9 -15
19 -21 26 -13 34 -13 25 2 -4 7 -3 8 5 4 6 -4 8 -12 5 -18 -5 -8 -1 -9 12 -4
10 5 25 9 32 9 15 0 16 17 1 17 -5 0 -7 5 -4 10 3 6 1 10 -5 10 -6 0 1 16 16
35 19 25 30 33 38 25 14 -14 23 -13 23 4 0 16 -61 18 -77 2z"/>
<path d="M1227 1883 c-3 -3 -3 -12 0 -21 4 -10 2 -13 -5 -8 -19 12 -24 -14 -8
-39 16 -24 11 -31 -17 -26 -5 1 -6 -3 -2 -9 8 -14 -44 -7 -75 10 -33 19 -49
20 -57 8 -4 -7 -1 -8 7 -3 9 6 11 4 5 -5 -6 -11 -10 -10 -19 2 -6 8 -19 17
-29 21 -15 6 -16 4 -7 -14 6 -11 15 -17 19 -15 4 3 8 -8 8 -24 0 -16 -4 -27
-8 -24 -4 2 -13 -5 -19 -16 -6 -11 -15 -18 -21 -15 -14 10 -11 -11 5 -24 10
-8 16 -9 21 -1 3 5 0 10 -7 10 -7 0 1 11 17 24 22 17 34 21 43 14 15 -13 16 4
1 19 -8 8 -7 17 4 33 15 22 31 13 22 -12 -4 -9 0 -15 10 -15 9 0 14 6 11 14
-4 10 -1 11 14 3 13 -7 17 -16 13 -28 -3 -9 -3 -14 2 -10 4 4 14 3 22 -3 9 -8
13 -8 13 -1 0 6 -4 14 -10 17 -5 3 -10 12 -9 18 0 8 2 8 6 -1 4 -10 9 -9 24 4
19 17 20 17 13 -2 -6 -16 -5 -17 7 -6 7 6 18 12 24 12 5 0 4 -4 -3 -9 -11 -6
-9 -10 7 -14 18 -4 19 -2 10 14 -5 10 -14 19 -20 19 -5 0 -2 11 6 24 12 18 13
26 4 32 -8 5 -9 3 -4 -6 6 -9 4 -11 -5 -5 -10 6 -9 12 7 25 20 16 20 17 3 28
-10 6 -20 8 -23 5z"/>
<path d="M964 1760 c0 -10 8 -16 21 -15 11 1 20 8 20 15 0 7 -9 14 -20 15 -13
1 -21 -5 -21 -15z"/>
<path d="M1084 1769 c-3 -6 -2 -15 3 -20 5 -5 9 -1 9 11 0 23 -2 24 -12 9z"/>
<path d="M1132 1748 c-7 -7 -12 -8 -12 -3 0 5 -7 -1 -16 -13 -11 -16 -19 -20
-28 -13 -9 7 -17 5 -28 -9 -14 -16 -14 -19 -2 -24 10 -4 13 -1 9 7 -4 6 0 4 8
-5 14 -18 33 -25 23 -10 -2 4 -1 14 5 22 5 8 9 10 9 4 0 -6 7 -11 15 -11 9 0
14 5 12 11 -3 6 -10 10 -16 8 -7 -1 -10 2 -6 8 4 7 11 8 18 2 7 -5 20 -8 29
-7 11 2 15 -2 11 -11 -6 -16 17 -15 30 1 4 6 10 5 16 -4 6 -9 11 -10 15 -2 9
14 26 14 26 0 0 -5 -4 -8 -8 -5 -5 3 -9 -1 -9 -9 0 -8 5 -11 10 -8 6 4 7 1 3
-6 -6 -9 -13 -8 -27 5 -11 9 -22 14 -26 11 -8 -8 26 -36 45 -37 6 0 12 -5 12
-10 0 -14 -22 -8 -37 10 -11 13 -15 13 -28 -4 -21 -28 -19 -35 10 -31 14 1 28
-2 32 -8 3 -6 1 -7 -5 -3 -7 4 -12 3 -12 -2 0 -11 30 -25 38 -17 3 3 1 5 -4 5
-5 0 -10 9 -11 20 -1 11 4 19 10 17 7 -1 12 8 12 20 0 11 3 24 7 28 4 4 2 17
-4 29 -7 11 -11 24 -10 28 1 3 -6 9 -14 12 -12 4 -15 2 -11 -9 4 -8 1 -17 -5
-21 -7 -5 -8 -2 -3 5 6 10 3 11 -12 2 -11 -6 -24 -7 -28 -3 -6 7 -10 8 -36 11
-8 1 -8 6 1 16 15 18 9 20 -8 3z m78 -108 c0 -5 -4 -10 -10 -10 -5 0 -10 5
-10 10 0 6 5 10 10 10 6 0 10 -4 10 -10z"/>
<path d="M1195 1740 c3 -5 8 -10 11 -10 2 0 4 5 4 10 0 6 -5 10 -11 10 -5 0
-7 -4 -4 -10z"/>
<path d="M884 1725 c-21 -16 -38 -20 -30 -7 2 4 -4 8 -14 8 -11 0 -17 -2 -15
-5 3 -2 -4 -10 -14 -18 -18 -12 -27 -58 -9 -47 4 3 8 0 8 -7 0 -8 3 -9 13 0 8
6 17 8 20 4 4 -3 7 -1 7 5 0 16 -17 24 -25 12 -8 -13 -25 -3 -25 13 0 7 4 6
10 -3 9 -15 11 -13 14 13 0 6 8 12 16 12 9 0 14 -7 12 -19 -3 -17 -1 -18 12
-7 8 7 14 17 13 21 -1 4 2 8 7 8 5 0 13 6 17 14 6 9 9 9 9 1 0 -6 -4 -15 -10
-18 -5 -3 -10 -11 -10 -17 0 -7 6 -6 15 2 8 7 15 9 15 4 0 -12 20 18 20 30 0
5 -3 6 -7 3 -3 -4 -11 -2 -18 3 -8 6 -18 5 -31 -5z"/>
<path d="M949 1718 c-1 -7 -1 -18 0 -25 1 -7 -7 -10 -19 -8 -11 2 -20 0 -20
-5 0 -6 -10 -9 -22 -7 -14 1 -22 -3 -20 -10 1 -7 -2 -14 -8 -14 -13 -2 -29 -6
-35 -9 -3 -1 -8 -3 -12 -4 -5 -1 -13 -5 -20 -9 -6 -4 -14 -3 -18 3 -3 5 -11
10 -16 10 -6 0 -8 -4 -4 -9 3 -6 -4 -15 -16 -21 -16 -9 -18 -15 -10 -23 9 -9
6 -16 -9 -27 -12 -9 -22 -23 -24 -30 -2 -8 -6 -23 -11 -33 -4 -10 -2 -23 4
-31 8 -10 8 -16 -4 -26 -8 -7 -12 -16 -9 -21 3 -5 -1 -12 -9 -15 -17 -6 -17
-68 1 -86 6 -6 12 -8 12 -2 0 5 4 3 9 -5 5 -8 19 -15 30 -16 11 -1 17 3 14 8
-4 6 0 8 10 4 8 -3 21 0 27 8 6 8 18 11 26 8 12 -4 12 -8 2 -21 -12 -13 -11
-14 8 -2 26 16 28 43 2 34 -10 -3 -18 -1 -18 4 0 5 -7 9 -15 9 -9 0 -14 -6
-11 -13 3 -7 -2 -11 -12 -9 -9 1 -24 -1 -33 -6 -12 -6 -22 0 -37 21 -13 17
-18 31 -12 35 6 4 7 11 4 17 -4 7 -2 8 5 4 6 -4 11 -4 10 1 -4 23 3 31 25 29
17 -2 23 1 19 11 -4 10 -9 11 -19 2 -10 -8 -14 -8 -14 0 0 6 5 11 11 11 8 0 9
4 0 13 -6 8 -8 17 -4 20 3 4 1 7 -7 7 -9 0 -10 3 -1 13 6 8 7 17 3 21 -4 4 -2
7 3 6 22 -5 29 1 15 11 -12 8 -9 9 10 4 17 -4 21 -3 12 3 -11 7 -10 11 5 16
17 7 17 8 -2 23 -14 11 -15 14 -4 10 9 -3 21 -1 27 5 8 8 16 8 27 -2 10 -8 15
-9 15 -1 0 6 -5 11 -11 11 -5 0 -7 5 -3 11 3 6 9 7 13 3 11 -16 34 -16 28 0
-4 9 0 13 11 11 9 -1 22 2 29 7 7 5 14 5 18 -2 3 -5 11 -10 17 -10 7 0 6 5 -1
14 -10 12 -8 17 8 26 12 6 21 8 21 5 0 -3 10 -1 23 5 21 11 21 10 3 -4 -10 -9
-24 -13 -29 -9 -6 4 -8 0 -4 -11 4 -10 7 -20 7 -23 0 -2 7 3 16 11 8 9 20 14
25 11 5 -4 9 0 9 7 0 10 3 9 11 -2 16 -23 6 1 -16 37 -21 34 -34 42 -36 21z
m21 -18 c0 -5 -2 -10 -4 -10 -3 0 -8 5 -11 10 -3 6 -1 10 4 10 6 0 11 -4 11
-10z"/>
<path d="M1137 1697 c-4 -10 -14 -14 -26 -12 -12 2 -20 -1 -18 -8 2 -13 -17
-14 -45 -2 -12 5 -21 -1 -32 -22 -8 -15 -15 -22 -16 -14 0 11 -4 10 -15 -5
-15 -19 -15 -19 -8 1 6 17 5 18 -9 5 -12 -11 -13 -19 -4 -32 10 -16 11 -16 21
3 6 11 14 17 17 14 3 -3 13 6 22 20 14 21 20 24 37 15 11 -6 16 -16 13 -22 -5
-7 -2 -9 9 -5 11 4 15 1 12 -13 -2 -12 1 -17 10 -14 16 6 13 33 -4 44 -18 10
-1 19 32 16 16 -2 24 1 20 7 -4 6 -1 7 7 2 10 -6 7 -12 -10 -25 -26 -20 -36
-52 -14 -43 8 3 12 9 9 13 -3 5 0 12 6 16 8 5 9 3 4 -6 -5 -9 -4 -11 4 -6 6 4
9 11 6 16 -3 4 2 10 10 14 8 3 12 12 9 21 -3 8 -10 13 -14 10 -5 -3 -13 2 -18
11 -8 14 -10 15 -15 1z"/>
<path d="M1026 1635 c-9 -13 -16 -30 -16 -37 0 -8 5 -6 11 5 6 9 14 15 20 12
5 -4 9 -1 9 5 0 6 5 8 11 4 8 -4 7 -9 -2 -15 -11 -7 -11 -9 1 -9 9 0 11 -3 5
-8 -14 -10 -13 -34 2 -39 8 -3 11 3 8 17 -3 18 -2 20 10 10 8 -7 12 -16 9 -21
-3 -5 -1 -9 4 -9 15 0 22 13 14 25 -4 6 1 2 11 -8 9 -11 17 -15 17 -10 0 5 7
10 15 10 18 0 20 -17 3 -17 -19 -1 -53 -29 -45 -37 4 -3 16 2 27 12 11 10 20
14 20 9 0 -5 5 -1 11 9 5 9 7 23 4 30 -4 6 0 4 8 -6 9 -10 19 -18 24 -18 4 1
16 -2 25 -5 16 -5 16 -7 -2 -27 -22 -23 -27 -46 -7 -28 10 8 14 7 14 -4 0 -7
-5 -13 -10 -12 -5 1 -12 -4 -14 -11 -3 -7 1 -11 7 -10 7 2 14 -5 15 -15 3 -17
2 -17 -14 -3 -25 23 -37 20 -16 -4 18 -20 40 -22 40 -4 0 5 4 15 8 22 5 6 5
18 0 25 -14 23 -12 39 4 33 13 -5 14 -4 3 9 -7 8 -9 15 -5 15 4 0 2 6 -4 13
-6 8 -9 16 -7 18 2 2 -12 14 -31 26 -19 13 -32 19 -29 15 3 -4 -4 -13 -14 -20
-14 -9 -19 -8 -23 2 -3 8 -17 12 -36 10 -16 -2 -33 1 -36 6 -3 6 0 10 7 10 8
0 6 5 -5 11 -9 6 -15 14 -12 19 3 4 -1 10 -9 13 -8 3 -21 -4 -30 -18z"/>
<path d="M1116 1648 c3 -5 10 -6 15 -3 13 9 11 12 -6 12 -8 0 -12 -4 -9 -9z"/>
<path d="M876 1631 c-9 -14 5 -42 17 -34 6 3 7 1 3 -6 -4 -6 -11 -9 -16 -6 -9
6 -23 -25 -15 -33 3 -3 5 0 5 6 0 7 5 12 11 12 6 0 25 10 42 22 27 19 30 19
17 3 -14 -17 -13 -18 5 -11 11 4 16 4 12 0 -8 -8 11 -34 24 -34 10 0 -28 67
-43 76 -5 4 -15 1 -21 -6 -9 -10 -9 -11 2 -5 9 5 12 4 7 -3 -4 -6 -13 -9 -21
-6 -8 4 -13 10 -10 14 3 5 1 11 -4 14 -5 4 -12 2 -15 -3z"/>
<path d="M842 1605 c-15 -32 -15 -38 0 -29 7 4 8 3 4 -5 -4 -6 -12 -8 -18 -5
-8 5 -9 1 -4 -12 5 -10 9 -25 9 -31 0 -16 17 -17 17 -2 0 5 5 7 10 4 6 -3 10
-1 10 5 0 7 18 -3 40 -20 22 -17 40 -27 40 -21 0 6 -12 18 -26 28 -25 16 -25
17 -8 30 10 7 23 13 28 13 6 0 5 -4 -2 -8 -9 -7 -8 -13 8 -27 14 -13 20 -14
20 -5 0 11 3 11 12 2 15 -15 28 -16 28 -2 0 6 -5 10 -11 10 -6 0 -25 11 -41
25 -31 26 -56 28 -50 5 2 -7 -3 -10 -12 -7 -8 3 -17 3 -20 -1 -4 -3 -13 -7
-21 -8 -12 -2 -12 2 -5 17 6 10 7 19 3 19 -4 0 -2 4 6 9 9 6 10 14 4 25 -8 15
-11 14 -21 -9z"/>
<path d="M815 1590 c-3 -11 -11 -20 -16 -20 -5 0 -8 3 -6 8 2 8 -6 12 -24 12
-8 0 -7 -5 1 -16 11 -12 11 -15 0 -12 -8 2 -14 -3 -15 -9 0 -7 -10 -20 -22
-28 -25 -17 -26 -50 -2 -69 19 -15 21 -33 8 -58 -9 -16 -8 -19 3 -16 7 3 14
10 14 16 1 7 2 13 4 15 9 11 5 37 -7 41 -12 5 -13 9 -3 21 14 17 -1 20 -17 4
-22 -22 -8 16 14 41 12 12 20 26 18 30 -6 10 33 5 42 -5 5 -4 3 -6 -2 -2 -6 3
-12 -3 -12 -14 -1 -11 2 -17 7 -14 5 3 12 0 16 -6 4 -7 3 -9 -4 -5 -17 10 -22
-7 -6 -22 10 -10 14 -10 14 -1 0 7 3 9 7 6 3 -4 13 -1 22 6 14 11 14 10 2 -5
-8 -11 -9 -18 -3 -18 6 0 14 5 17 10 4 7 11 7 18 2 7 -5 20 -8 29 -7 10 2 15
-2 12 -9 -3 -7 2 -13 11 -13 8 0 15 5 15 11 0 7 3 6 8 -1 6 -9 11 -7 20 7 14
22 9 25 -18 10 -13 -7 -21 -6 -30 5 -6 7 -19 11 -27 8 -10 -4 -14 -2 -9 5 12
19 -14 24 -39 8 -24 -16 -31 -11 -26 17 1 5 -3 6 -9 2 -11 -6 -8 37 5 68 4 9
5 17 2 17 -3 0 -9 -9 -12 -20z"/>
<path d="M988 1592 c-3 -11 -1 -25 5 -31 6 -6 7 -11 2 -11 -5 0 -1 -6 10 -13
10 -8 15 -19 11 -25 -9 -15 -52 -9 -74 11 -10 10 -22 17 -27 17 -4 0 5 -10 21
-22 16 -13 34 -22 40 -20 16 3 27 -15 15 -23 -6 -3 -8 -12 -5 -20 4 -10 0 -13
-15 -10 -24 4 -27 -7 -7 -24 10 -9 17 -6 29 13 12 18 13 26 4 29 -9 4 -9 6 0
6 6 1 15 -3 18 -9 3 -5 11 -10 17 -10 7 0 7 4 -1 13 -6 8 -8 17 -4 20 3 4 1 7
-6 7 -7 0 -9 5 -5 11 4 7 9 8 13 1 4 -7 13 -5 25 4 11 7 17 17 13 20 -4 4 -13
1 -22 -6 -8 -7 -15 -8 -15 -2 0 5 7 13 16 16 11 4 13 10 6 19 -5 6 -8 20 -7
29 2 10 -2 21 -8 25 -7 3 -9 3 -5 -2 8 -8 -20 -34 -37 -35 -5 0 -5 4 2 8 7 4
9 13 4 21 -6 9 -10 8 -13 -7z m49 -19 c-4 -3 -1 -13 6 -21 9 -13 9 -14 0 -8
-8 4 -13 2 -13 -6 0 -10 -3 -9 -10 2 -8 13 3 40 18 40 3 0 2 -3 -1 -7z"/>
<path d="M1150 1600 c0 -5 5 -10 10 -10 6 0 10 5 10 10 0 6 -4 10 -10 10 -5 0
-10 -4 -10 -10z"/>
<path d="M1079 1545 c-7 0 -3 -48 4 -52 6 -4 7 -1 2 6 -6 10 -3 11 14 2 23
-13 29 -23 8 -15 -7 2 -13 -4 -14 -15 -1 -17 1 -19 17 -9 10 7 22 21 25 33 4
13 8 15 12 7 7 -17 23 -4 16 14 -5 13 -8 13 -24 -2 -16 -14 -22 -15 -32 -5 -9
10 -8 15 6 26 17 12 16 13 -7 11 -15 0 -26 -1 -27 -1z"/>
<path d="M1186 1538 c3 -4 0 -8 -5 -8 -6 0 -11 -5 -11 -11 0 -6 9 -8 23 -4 21
6 21 5 -2 -8 -26 -15 -36 -43 -20 -53 6 -3 16 0 25 6 11 10 12 16 3 26 -8 10
-8 14 -1 14 6 0 16 9 22 20 9 16 8 19 -6 13 -11 -4 -15 -2 -11 4 3 5 0 10 -8
10 -8 0 -12 -4 -9 -9z m9 -57 c3 -5 0 -13 -6 -17 -7 -4 -9 -3 -5 4 3 5 0 13
-6 15 -9 4 -10 6 -1 6 6 1 14 -3 18 -8z"/>
<path d="M760 1521 c-7 -14 -7 -22 0 -26 8 -5 7 -12 -2 -23 -10 -12 -10 -14 0
-8 11 6 17 -5 13 -26 0 -5 4 -8 10 -8 6 0 9 6 6 14 -6 16 2 28 14 20 5 -3 5
-13 -1 -24 -7 -14 -6 -19 6 -24 11 -4 15 -2 11 8 -3 8 2 20 11 28 12 10 14 10
8 0 -4 -7 -4 -11 1 -10 4 2 9 -1 9 -7 1 -5 -2 -9 -7 -7 -5 1 -9 -2 -9 -8 0
-19 30 -10 46 15 16 24 11 51 -7 39 -5 -3 -7 -10 -4 -15 4 -5 2 -9 -4 -9 -5 0
-13 5 -16 11 -4 6 -12 8 -19 6 -6 -3 -22 4 -35 14 -13 11 -19 19 -14 19 5 0 9
9 9 20 0 25 -12 26 -26 1z"/>
<path d="M1041 1486 c-6 -7 -8 -16 -4 -20 10 -10 12 -36 3 -36 -5 0 -12 5 -15
10 -10 16 -25 1 -18 -17 4 -10 2 -14 -5 -9 -14 9 -27 -13 -14 -26 7 -7 14 -3
22 12 6 12 14 19 17 16 4 -3 13 0 22 7 14 10 14 10 4 -4 -13 -16 -8 -29 9 -29
5 0 7 4 3 9 -3 5 0 13 5 16 7 5 5 12 -7 21 -10 7 -13 14 -7 14 5 0 15 -5 22
-12 7 -7 12 -8 12 -4 0 5 -7 14 -17 21 -13 9 -13 14 -3 20 9 6 11 4 5 -5 -5
-9 -4 -11 3 -6 16 10 15 14 -7 25 -14 8 -22 7 -30 -3z"/>
<path d="M1128 1468 c-10 -10 -19 -21 -20 -25 0 -5 -8 -13 -17 -20 -9 -6 -16
-17 -16 -24 0 -19 -21 -22 -38 -5 -13 13 -16 12 -25 -9 -11 -24 -2 -29 25 -12
6 4 14 3 17 -2 7 -11 -3 -41 -14 -41 -10 0 -7 -27 5 -37 4 -4 5 -3 2 3 -4 6 0
19 7 29 10 14 15 15 21 5 6 -9 4 -11 -5 -5 -9 5 -11 4 -6 -4 4 -6 11 -9 16 -6
5 3 13 -2 18 -10 8 -15 10 -15 21 -1 11 13 11 16 0 16 -8 1 -1 8 15 16 20 11
31 13 39 5 18 -18 28 -12 15 8 -7 11 -16 18 -20 15 -4 -3 -5 3 -1 12 6 15 4
15 -19 0 -15 -10 -33 -14 -44 -9 -17 6 -17 5 -6 -10 8 -9 10 -21 6 -28 -5 -8
-10 -6 -17 7 -15 26 -17 45 -5 38 7 -4 8 -2 4 4 -5 8 -1 10 11 6 15 -6 15 -4
-2 10 -19 15 -19 16 -1 9 13 -4 17 -3 12 5 -5 8 -1 10 11 6 10 -3 14 -2 8 3
-12 10 -18 33 -7 33 4 0 13 -13 20 -28 12 -28 41 -40 43 -18 0 6 4 2 8 -8 8
-20 41 -32 41 -15 0 6 5 7 12 3 7 -5 8 -3 4 5 -5 7 -10 10 -12 8 -5 -5 -79 64
-79 74 0 16 -11 15 -27 -3z m48 -34 c19 -15 34 -31 34 -37 0 -6 -6 -3 -13 8
-8 10 -19 15 -24 12 -6 -4 -16 0 -23 8 -7 8 -9 15 -4 15 5 0 2 5 -6 10 -8 5
-11 10 -7 10 5 0 24 -12 43 -26z"/>
<path d="M881 1430 c-24 -38 -38 -45 -54 -25 -5 6 -6 1 -2 -10 6 -18 4 -18
-15 3 -19 20 -48 28 -38 11 7 -13 -26 -39 -43 -34 -11 4 -21 -1 -27 -11 -5 -9
-12 -12 -15 -7 -4 6 5 16 18 23 25 13 35 40 15 40 -5 0 -10 -5 -10 -11 0 -5
-5 -7 -12 -3 -6 4 -8 3 -5 -3 4 -6 0 -16 -8 -23 -12 -10 -13 -16 -4 -26 6 -8
16 -11 22 -7 6 4 8 0 4 -10 -4 -11 -2 -14 9 -10 17 6 18 15 2 31 -9 9 -9 12
-1 12 7 0 15 -10 19 -22 6 -19 7 -19 16 -4 5 9 14 13 20 10 7 -4 8 -2 4 4 -4
7 -2 12 3 12 13 0 10 22 -4 33 -6 5 -5 7 3 5 8 -2 13 -7 12 -12 -1 -4 6 -13
16 -20 13 -10 14 -15 4 -21 -9 -5 -11 -4 -6 3 4 7 2 12 -4 12 -25 0 -2 -23 25
-26 20 -2 25 0 16 5 -9 6 -11 16 -7 27 4 11 10 14 14 8 11 -16 34 -10 43 11 4
11 8 14 8 7 1 -7 6 -10 13 -6 7 5 5 11 -7 21 -11 7 -13 13 -7 13 7 0 15 0 20
0 4 0 7 -5 7 -12 0 -6 6 -13 14 -16 9 -3 11 0 6 8 -5 9 -4 11 4 6 6 -4 9 -12
6 -17 -4 -5 0 -9 7 -9 9 0 9 -3 -2 -10 -14 -9 -13 -11 10 -14 6 0 15 -7 19
-15 5 -7 15 -10 22 -7 8 4 6 1 -4 -7 -10 -9 -18 -19 -17 -23 1 -5 -4 -10 -12
-12 -9 -3 -10 -1 -1 5 8 6 8 12 -1 25 -7 10 -16 14 -20 10 -4 -4 -6 -1 -4 7 2
7 -3 16 -11 19 -9 3 -11 0 -6 -8 5 -9 4 -11 -4 -6 -6 4 -9 11 -6 16 3 5 2 11
-3 14 -4 2 -15 -9 -24 -25 -17 -29 -12 -39 9 -18 13 13 57 -6 48 -21 -3 -5 0
-12 7 -17 17 -10 58 -11 52 -1 -3 4 0 8 6 8 6 0 9 4 6 9 -3 5 1 14 9 21 8 7
15 18 15 24 0 8 -3 7 -8 -1 -13 -21 -42 -8 -68 30 -13 20 -29 37 -35 37 -6 0
-7 5 -3 12 4 6 3 8 -4 4 -6 -3 -14 0 -19 8 -6 11 -14 5 -32 -24z m2 -25 c-3
-9 -8 -14 -10 -11 -3 3 -2 9 2 15 9 16 15 13 8 -4z m-113 -29 c0 -2 -8 -10
-17 -17 -16 -13 -17 -12 -4 4 13 16 21 21 21 13z"/>
<path d="M1122 1401 c-11 -6 -9 -9 6 -13 15 -4 19 -2 15 8 -6 16 -4 16 -21 5z"/>
<path d="M927 1389 c7 -7 15 -10 18 -7 3 3 -2 9 -12 12 -14 6 -15 5 -6 -5z"/>
<path d="M881 1363 c-6 -10 -11 -13 -11 -7 0 6 -7 11 -16 11 -15 0 -15 -2 0
-13 16 -11 16 -13 -4 -19 -12 -4 -19 -9 -16 -12 3 -4 2 -11 -4 -17 -6 -8 -3
-12 10 -12 10 0 16 4 14 8 -8 12 11 9 23 -3 9 -9 11 -8 9 4 -1 9 -5 19 -9 23
-3 3 1 17 10 30 8 13 13 24 10 24 -3 0 -11 -8 -16 -17z"/>
<path d="M1194 1358 c10 -18 12 -29 5 -33 -12 -8 7 -35 25 -35 6 0 4 5 -4 10
-11 7 -11 10 -2 10 7 0 11 4 7 10 -3 5 7 16 22 24 15 8 24 16 18 17 -38 6 -55
5 -55 -4 0 -6 -7 -2 -16 9 -15 17 -15 17 0 -8z m46 -8 c-8 -5 -19 -10 -25 -10
-5 0 -3 5 5 10 8 5 20 10 25 10 6 0 3 -5 -5 -10z"/>
</g>
</svg>
